<mxfile host="app.diagrams.net" agent="Mozilla/5.0 (X11; Linux x86_64) AppleWebKit/537.36 (KHTML, like Gecko) Chrome/141.0.0.0 Safari/537.36" version="28.2.5">
  <diagram name="PÃ¡gina-1" id="XpMmanXdB5qitEVBGd2q">
    <mxGraphModel dx="1426" dy="679" grid="1" gridSize="10" guides="1" tooltips="1" connect="1" arrows="1" fold="1" page="1" pageScale="1" pageWidth="827" pageHeight="1169" math="0" shadow="0">
      <root>
        <mxCell id="0" />
        <mxCell id="1" parent="0" />
        <mxCell id="OJxwPTO8iqBb-8ecXSKR-1" value="VISTA" style="rounded=0;whiteSpace=wrap;html=1;" vertex="1" parent="1">
          <mxGeometry x="120" y="20" width="120" height="60" as="geometry" />
        </mxCell>
        <mxCell id="OJxwPTO8iqBb-8ecXSKR-2" value="CONTROLADOR" style="rounded=0;whiteSpace=wrap;html=1;" vertex="1" parent="1">
          <mxGeometry x="320" y="20" width="120" height="60" as="geometry" />
        </mxCell>
        <mxCell id="OJxwPTO8iqBb-8ecXSKR-3" value="MODELO" style="rounded=0;whiteSpace=wrap;html=1;" vertex="1" parent="1">
          <mxGeometry x="520" y="20" width="120" height="60" as="geometry" />
        </mxCell>
        <mxCell id="OJxwPTO8iqBb-8ecXSKR-83" style="edgeStyle=orthogonalEdgeStyle;rounded=0;orthogonalLoop=1;jettySize=auto;html=1;exitX=0.5;exitY=1;exitDx=0;exitDy=0;entryX=1;entryY=0.5;entryDx=0;entryDy=0;" edge="1" parent="1" source="OJxwPTO8iqBb-8ecXSKR-7" target="OJxwPTO8iqBb-8ecXSKR-61">
          <mxGeometry relative="1" as="geometry" />
        </mxCell>
        <mxCell id="OJxwPTO8iqBb-8ecXSKR-7" value="recuperar datos de prestatario" style="rounded=1;whiteSpace=wrap;html=1;" vertex="1" parent="1">
          <mxGeometry x="320" y="600" width="120" height="40" as="geometry" />
        </mxCell>
        <mxCell id="OJxwPTO8iqBb-8ecXSKR-11" value="" style="ellipse;whiteSpace=wrap;html=1;aspect=fixed;fillStyle=solid;fillColor=light-dark(#FFFFFF,#121212);" vertex="1" parent="1">
          <mxGeometry x="170" y="1090" width="20" height="20" as="geometry" />
        </mxCell>
        <mxCell id="OJxwPTO8iqBb-8ecXSKR-56" style="edgeStyle=orthogonalEdgeStyle;rounded=0;orthogonalLoop=1;jettySize=auto;html=1;exitX=1;exitY=0.5;exitDx=0;exitDy=0;entryX=0;entryY=0.5;entryDx=0;entryDy=0;" edge="1" parent="1" source="OJxwPTO8iqBb-8ecXSKR-31" target="OJxwPTO8iqBb-8ecXSKR-7">
          <mxGeometry relative="1" as="geometry" />
        </mxCell>
        <mxCell id="OJxwPTO8iqBb-8ecXSKR-31" value="modificar prestatario" style="rounded=1;whiteSpace=wrap;html=1;" vertex="1" parent="1">
          <mxGeometry x="120" y="600" width="120" height="40" as="geometry" />
        </mxCell>
        <mxCell id="OJxwPTO8iqBb-8ecXSKR-43" style="edgeStyle=orthogonalEdgeStyle;rounded=0;orthogonalLoop=1;jettySize=auto;html=1;exitX=0.5;exitY=1;exitDx=0;exitDy=0;entryX=0.5;entryY=0;entryDx=0;entryDy=0;" edge="1" parent="1" source="OJxwPTO8iqBb-8ecXSKR-33" target="OJxwPTO8iqBb-8ecXSKR-35">
          <mxGeometry relative="1" as="geometry" />
        </mxCell>
        <mxCell id="OJxwPTO8iqBb-8ecXSKR-33" value="vista prestatarios" style="rounded=1;whiteSpace=wrap;html=1;" vertex="1" parent="1">
          <mxGeometry x="120" y="120" width="120" height="40" as="geometry" />
        </mxCell>
        <mxCell id="OJxwPTO8iqBb-8ecXSKR-44" style="edgeStyle=orthogonalEdgeStyle;rounded=0;orthogonalLoop=1;jettySize=auto;html=1;exitX=1;exitY=0.5;exitDx=0;exitDy=0;entryX=0;entryY=0.5;entryDx=0;entryDy=0;" edge="1" parent="1" source="OJxwPTO8iqBb-8ecXSKR-35" target="OJxwPTO8iqBb-8ecXSKR-36">
          <mxGeometry relative="1" as="geometry" />
        </mxCell>
        <mxCell id="OJxwPTO8iqBb-8ecXSKR-35" value="listar prestatarios" style="rounded=1;whiteSpace=wrap;html=1;" vertex="1" parent="1">
          <mxGeometry x="120" y="200" width="120" height="40" as="geometry" />
        </mxCell>
        <mxCell id="OJxwPTO8iqBb-8ecXSKR-45" style="edgeStyle=orthogonalEdgeStyle;rounded=0;orthogonalLoop=1;jettySize=auto;html=1;exitX=1;exitY=0.5;exitDx=0;exitDy=0;entryX=0;entryY=0.5;entryDx=0;entryDy=0;" edge="1" parent="1" source="OJxwPTO8iqBb-8ecXSKR-36" target="OJxwPTO8iqBb-8ecXSKR-37">
          <mxGeometry relative="1" as="geometry" />
        </mxCell>
        <mxCell id="OJxwPTO8iqBb-8ecXSKR-36" value="recuperar lista prestatarios" style="rounded=1;whiteSpace=wrap;html=1;" vertex="1" parent="1">
          <mxGeometry x="320" y="200" width="120" height="40" as="geometry" />
        </mxCell>
        <mxCell id="OJxwPTO8iqBb-8ecXSKR-46" style="edgeStyle=orthogonalEdgeStyle;rounded=0;orthogonalLoop=1;jettySize=auto;html=1;exitX=0.5;exitY=1;exitDx=0;exitDy=0;entryX=1;entryY=0.5;entryDx=0;entryDy=0;" edge="1" parent="1" source="OJxwPTO8iqBb-8ecXSKR-37" target="OJxwPTO8iqBb-8ecXSKR-39">
          <mxGeometry relative="1" as="geometry" />
        </mxCell>
        <mxCell id="OJxwPTO8iqBb-8ecXSKR-37" value="recuperar prestatarios" style="rounded=1;whiteSpace=wrap;html=1;" vertex="1" parent="1">
          <mxGeometry x="520" y="200" width="120" height="40" as="geometry" />
        </mxCell>
        <mxCell id="OJxwPTO8iqBb-8ecXSKR-47" style="edgeStyle=orthogonalEdgeStyle;rounded=0;orthogonalLoop=1;jettySize=auto;html=1;exitX=0;exitY=0.5;exitDx=0;exitDy=0;entryX=1;entryY=0.5;entryDx=0;entryDy=0;" edge="1" parent="1" source="OJxwPTO8iqBb-8ecXSKR-38" target="OJxwPTO8iqBb-8ecXSKR-41">
          <mxGeometry relative="1" as="geometry" />
        </mxCell>
        <mxCell id="OJxwPTO8iqBb-8ecXSKR-49" style="edgeStyle=orthogonalEdgeStyle;rounded=0;orthogonalLoop=1;jettySize=auto;html=1;exitX=0.5;exitY=1;exitDx=0;exitDy=0;entryX=1;entryY=0.5;entryDx=0;entryDy=0;" edge="1" parent="1" source="OJxwPTO8iqBb-8ecXSKR-38" target="OJxwPTO8iqBb-8ecXSKR-42">
          <mxGeometry relative="1" as="geometry" />
        </mxCell>
        <mxCell id="OJxwPTO8iqBb-8ecXSKR-38" value="" style="rhombus;whiteSpace=wrap;html=1;" vertex="1" parent="1">
          <mxGeometry x="360" y="360" width="40" height="40" as="geometry" />
        </mxCell>
        <mxCell id="OJxwPTO8iqBb-8ecXSKR-58" style="edgeStyle=orthogonalEdgeStyle;rounded=0;orthogonalLoop=1;jettySize=auto;html=1;exitX=0.5;exitY=1;exitDx=0;exitDy=0;entryX=0.5;entryY=0;entryDx=0;entryDy=0;" edge="1" parent="1" source="OJxwPTO8iqBb-8ecXSKR-39" target="OJxwPTO8iqBb-8ecXSKR-38">
          <mxGeometry relative="1" as="geometry" />
        </mxCell>
        <mxCell id="OJxwPTO8iqBb-8ecXSKR-39" value="comprobar lista" style="rounded=1;whiteSpace=wrap;html=1;" vertex="1" parent="1">
          <mxGeometry x="320" y="280" width="120" height="40" as="geometry" />
        </mxCell>
        <mxCell id="OJxwPTO8iqBb-8ecXSKR-57" style="edgeStyle=orthogonalEdgeStyle;rounded=0;orthogonalLoop=1;jettySize=auto;html=1;exitX=0;exitY=0.5;exitDx=0;exitDy=0;entryX=0;entryY=0.5;entryDx=0;entryDy=0;" edge="1" parent="1" source="OJxwPTO8iqBb-8ecXSKR-41" target="OJxwPTO8iqBb-8ecXSKR-11">
          <mxGeometry relative="1" as="geometry">
            <Array as="points">
              <mxPoint x="80" y="380" />
              <mxPoint x="80" y="1100" />
            </Array>
          </mxGeometry>
        </mxCell>
        <mxCell id="OJxwPTO8iqBb-8ecXSKR-41" value="informar lista vacia" style="rounded=1;whiteSpace=wrap;html=1;" vertex="1" parent="1">
          <mxGeometry x="120" y="360" width="120" height="40" as="geometry" />
        </mxCell>
        <mxCell id="OJxwPTO8iqBb-8ecXSKR-54" style="edgeStyle=orthogonalEdgeStyle;rounded=0;orthogonalLoop=1;jettySize=auto;html=1;exitX=0.5;exitY=1;exitDx=0;exitDy=0;entryX=0.5;entryY=0;entryDx=0;entryDy=0;" edge="1" parent="1" source="OJxwPTO8iqBb-8ecXSKR-42" target="OJxwPTO8iqBb-8ecXSKR-51">
          <mxGeometry relative="1" as="geometry" />
        </mxCell>
        <mxCell id="OJxwPTO8iqBb-8ecXSKR-42" value="mostrar lista" style="rounded=1;whiteSpace=wrap;html=1;" vertex="1" parent="1">
          <mxGeometry x="120" y="440" width="120" height="40" as="geometry" />
        </mxCell>
        <mxCell id="OJxwPTO8iqBb-8ecXSKR-55" style="edgeStyle=orthogonalEdgeStyle;rounded=0;orthogonalLoop=1;jettySize=auto;html=1;exitX=0.5;exitY=1;exitDx=0;exitDy=0;" edge="1" parent="1" source="OJxwPTO8iqBb-8ecXSKR-51" target="OJxwPTO8iqBb-8ecXSKR-31">
          <mxGeometry relative="1" as="geometry" />
        </mxCell>
        <mxCell id="OJxwPTO8iqBb-8ecXSKR-51" value="seleccionar prestatario" style="rounded=1;whiteSpace=wrap;html=1;" vertex="1" parent="1">
          <mxGeometry x="120" y="520" width="120" height="40" as="geometry" />
        </mxCell>
        <mxCell id="OJxwPTO8iqBb-8ecXSKR-71" style="edgeStyle=orthogonalEdgeStyle;rounded=0;orthogonalLoop=1;jettySize=auto;html=1;exitX=0.5;exitY=1;exitDx=0;exitDy=0;entryX=0.5;entryY=0;entryDx=0;entryDy=0;" edge="1" parent="1" source="OJxwPTO8iqBb-8ecXSKR-61" target="OJxwPTO8iqBb-8ecXSKR-62">
          <mxGeometry relative="1" as="geometry" />
        </mxCell>
        <mxCell id="OJxwPTO8iqBb-8ecXSKR-61" value="mostrar formulario" style="rounded=1;whiteSpace=wrap;html=1;" vertex="1" parent="1">
          <mxGeometry x="120" y="680" width="120" height="40" as="geometry" />
        </mxCell>
        <mxCell id="OJxwPTO8iqBb-8ecXSKR-72" style="edgeStyle=orthogonalEdgeStyle;rounded=0;orthogonalLoop=1;jettySize=auto;html=1;exitX=0.5;exitY=1;exitDx=0;exitDy=0;entryX=0.5;entryY=0;entryDx=0;entryDy=0;" edge="1" parent="1" source="OJxwPTO8iqBb-8ecXSKR-62" target="OJxwPTO8iqBb-8ecXSKR-67">
          <mxGeometry relative="1" as="geometry" />
        </mxCell>
        <mxCell id="OJxwPTO8iqBb-8ecXSKR-62" value="modificar formulario" style="rounded=1;whiteSpace=wrap;html=1;" vertex="1" parent="1">
          <mxGeometry x="120" y="760" width="120" height="40" as="geometry" />
        </mxCell>
        <mxCell id="OJxwPTO8iqBb-8ecXSKR-74" style="edgeStyle=orthogonalEdgeStyle;rounded=0;orthogonalLoop=1;jettySize=auto;html=1;exitX=0.5;exitY=1;exitDx=0;exitDy=0;entryX=0.5;entryY=0;entryDx=0;entryDy=0;" edge="1" parent="1" source="OJxwPTO8iqBb-8ecXSKR-63" target="OJxwPTO8iqBb-8ecXSKR-64">
          <mxGeometry relative="1" as="geometry" />
        </mxCell>
        <mxCell id="OJxwPTO8iqBb-8ecXSKR-63" value="validar datos" style="rounded=1;whiteSpace=wrap;html=1;" vertex="1" parent="1">
          <mxGeometry x="320" y="840" width="120" height="40" as="geometry" />
        </mxCell>
        <mxCell id="OJxwPTO8iqBb-8ecXSKR-75" style="edgeStyle=orthogonalEdgeStyle;rounded=0;orthogonalLoop=1;jettySize=auto;html=1;exitX=0;exitY=0.5;exitDx=0;exitDy=0;" edge="1" parent="1" source="OJxwPTO8iqBb-8ecXSKR-64" target="OJxwPTO8iqBb-8ecXSKR-65">
          <mxGeometry relative="1" as="geometry" />
        </mxCell>
        <mxCell id="OJxwPTO8iqBb-8ecXSKR-76" style="edgeStyle=orthogonalEdgeStyle;rounded=0;orthogonalLoop=1;jettySize=auto;html=1;exitX=0.5;exitY=1;exitDx=0;exitDy=0;entryX=0.5;entryY=0;entryDx=0;entryDy=0;" edge="1" parent="1" source="OJxwPTO8iqBb-8ecXSKR-64" target="OJxwPTO8iqBb-8ecXSKR-66">
          <mxGeometry relative="1" as="geometry" />
        </mxCell>
        <mxCell id="OJxwPTO8iqBb-8ecXSKR-64" value="" style="rhombus;whiteSpace=wrap;html=1;" vertex="1" parent="1">
          <mxGeometry x="360" y="920" width="40" height="40" as="geometry" />
        </mxCell>
        <mxCell id="OJxwPTO8iqBb-8ecXSKR-82" style="edgeStyle=orthogonalEdgeStyle;rounded=0;orthogonalLoop=1;jettySize=auto;html=1;exitX=0;exitY=0.5;exitDx=0;exitDy=0;entryX=0;entryY=0.5;entryDx=0;entryDy=0;" edge="1" parent="1" source="OJxwPTO8iqBb-8ecXSKR-65" target="OJxwPTO8iqBb-8ecXSKR-61">
          <mxGeometry relative="1" as="geometry" />
        </mxCell>
        <mxCell id="OJxwPTO8iqBb-8ecXSKR-65" value="informar error" style="rounded=1;whiteSpace=wrap;html=1;" vertex="1" parent="1">
          <mxGeometry x="120" y="920" width="120" height="40" as="geometry" />
        </mxCell>
        <mxCell id="OJxwPTO8iqBb-8ecXSKR-80" style="edgeStyle=orthogonalEdgeStyle;rounded=0;orthogonalLoop=1;jettySize=auto;html=1;exitX=1;exitY=0.5;exitDx=0;exitDy=0;entryX=0;entryY=0.5;entryDx=0;entryDy=0;" edge="1" parent="1" source="OJxwPTO8iqBb-8ecXSKR-66" target="OJxwPTO8iqBb-8ecXSKR-79">
          <mxGeometry relative="1" as="geometry" />
        </mxCell>
        <mxCell id="OJxwPTO8iqBb-8ecXSKR-66" value="modificar prestatario" style="rounded=1;whiteSpace=wrap;html=1;" vertex="1" parent="1">
          <mxGeometry x="320" y="1000" width="120" height="40" as="geometry" />
        </mxCell>
        <mxCell id="OJxwPTO8iqBb-8ecXSKR-73" style="edgeStyle=orthogonalEdgeStyle;rounded=0;orthogonalLoop=1;jettySize=auto;html=1;exitX=1;exitY=0.5;exitDx=0;exitDy=0;entryX=0;entryY=0.5;entryDx=0;entryDy=0;" edge="1" parent="1" source="OJxwPTO8iqBb-8ecXSKR-67" target="OJxwPTO8iqBb-8ecXSKR-63">
          <mxGeometry relative="1" as="geometry" />
        </mxCell>
        <mxCell id="OJxwPTO8iqBb-8ecXSKR-67" value="confirmar formulario" style="rounded=1;whiteSpace=wrap;html=1;" vertex="1" parent="1">
          <mxGeometry x="120" y="840" width="120" height="40" as="geometry" />
        </mxCell>
        <mxCell id="OJxwPTO8iqBb-8ecXSKR-81" style="edgeStyle=orthogonalEdgeStyle;rounded=0;orthogonalLoop=1;jettySize=auto;html=1;exitX=0.5;exitY=1;exitDx=0;exitDy=0;entryX=1;entryY=0.5;entryDx=0;entryDy=0;" edge="1" parent="1" source="OJxwPTO8iqBb-8ecXSKR-79" target="OJxwPTO8iqBb-8ecXSKR-11">
          <mxGeometry relative="1" as="geometry" />
        </mxCell>
        <mxCell id="OJxwPTO8iqBb-8ecXSKR-79" value="modificar tabla prestatarios" style="rounded=1;whiteSpace=wrap;html=1;" vertex="1" parent="1">
          <mxGeometry x="520" y="1000" width="120" height="40" as="geometry" />
        </mxCell>
      </root>
    </mxGraphModel>
  </diagram>
</mxfile>
